# 3ds Max Wavefront OBJ Exporter v0.97b - (c)2007 guruware
# File Created: 22.10.2015 08:09:48

mtllib flag-textures.mtl

#
# object Flag_Quarter_004
#

v  -80.4032 545.1783 -0.0053
v  -80.7830 543.6589 -0.0053
v  -80.7830 543.6589 -1.7942
v  -80.4032 545.1783 -1.9516
v  -83.3131 546.6977 -4.3243
v  -83.1557 545.1783 -4.7041
v  -85.1021 545.1783 -4.7041
v  -85.1021 546.6977 -4.3243
v  -81.4441 542.1395 -0.0053
v  -81.4441 542.1395 -1.5204
v  -83.5869 542.1395 -3.6632
v  -84.2163 540.9999 -2.1438
v  -85.1021 540.9999 -2.1438
v  -85.1021 542.1395 -3.6632
v  -82.9635 540.9999 -0.0053
v  -82.9635 540.9999 -0.8911
v  -83.3131 543.6589 -4.3243
v  -80.7830 546.6977 -1.7942
v  -80.7830 546.6977 -0.0053
v  -85.1021 549.3567 -2.1438
v  -84.2163 549.3567 -2.1438
v  -83.5869 548.2172 -3.6632
v  -85.1021 548.2172 -3.6632
v  -84.1031 540.6201 -0.0053
v  -84.1031 540.6201 -0.4190
v  -81.4441 548.2172 -1.5204
v  -84.6883 549.7366 -1.0042
v  -84.1031 549.7366 -0.4190
v  -82.9635 549.3567 -0.8911
v  -85.1021 549.7366 -1.0042
v  -84.6883 540.6201 -1.0042
v  -84.1031 549.7366 -0.0053
v  -82.9635 549.3567 -0.0053
v  -81.4441 548.2172 -0.0053
v  -85.1021 543.6589 -4.3243
v  -85.1021 540.6201 -1.0042
v  -80.9499 3.5000 -0.0000
v  -80.9499 3.5000 -1.7221
v  -83.4443 540.0000 -0.6888
v  -83.4443 540.0000 -0.0000
v  -77.4499 3.5000 -0.0000
v  -77.4499 3.5000 -3.1718
v  -83.3852 3.5000 -4.1575
v  -81.9355 3.5000 -7.6575
v  -84.9711 3.5000 -4.1575
v  -85.1073 3.5000 -4.1575
v  -85.1073 3.5000 -7.6575
v  -84.4185 540.0000 -1.6630
v  -77.4499 -0.0000 -3.1718
v  -81.9355 0.0000 -7.6575
v  -85.1073 540.0000 -1.6630
v  -85.1073 0.0000 -7.6575
v  -77.4499 0.0000 -0.0000
v  -84.4839 540.0000 -0.0000
v  -84.6665 540.0000 -0.4409
v  -85.1073 540.0000 -0.6235
# 56 vertices

vn 1.0000 -0.0000 -0.0000
vn 0.9468 -0.3218 -0.0000
vn 0.8694 -0.3382 -0.3601
vn 0.9239 -0.0000 -0.3827
vn 0.3601 0.3382 -0.8694
vn 0.3827 -0.0000 -0.9239
vn -0.0000 -0.0000 -1.0000
vn -0.0000 0.3218 -0.9468
vn 0.7845 -0.6201 -0.0000
vn 0.7276 -0.6163 -0.3014
vn 0.3014 -0.6163 -0.7276
vn 0.1787 -0.8843 -0.4313
vn -0.0000 -0.8858 -0.4641
vn -0.0000 -0.6201 -0.7845
vn 0.4641 -0.8858 -0.0000
vn 0.4313 -0.8843 -0.1787
vn 0.3601 -0.3382 -0.8694
vn 0.8694 0.3382 -0.3601
vn 0.9468 0.3218 -0.0000
vn -0.0000 0.8858 -0.4641
vn 0.1787 0.8843 -0.4313
vn 0.3014 0.6163 -0.7276
vn -0.0000 0.6201 -0.7845
vn 0.3162 -0.9487 -0.0000
vn 0.2719 -0.9557 -0.1126
vn 0.7276 0.6163 -0.3014
vn 0.1126 0.9557 -0.2719
vn 0.2719 0.9557 -0.1126
vn 0.4313 0.8843 -0.1787
vn -0.0000 0.9487 -0.3162
vn 0.1126 -0.9557 -0.2719
vn 0.3162 0.9487 -0.0000
vn 0.4641 0.8858 -0.0000
vn 0.7845 0.6201 -0.0000
vn -0.0000 -0.3218 -0.9468
vn -0.0000 -0.9487 -0.3162
vn 1.0000 0.0046 -0.0000
vn 0.9239 0.0050 -0.3827
vn 0.0000 1.0000 -0.0000
vn 0.3827 0.0050 -0.9239
vn 0.3827 0.0000 -0.9239
vn -0.0000 0.0046 -1.0000
vn -0.0000 0.0000 -1.0000
# 43 vertex normals

vt 0.0000 0.0000 0.0000
# 1 texture coords

g Flag_Quarter_004
usemtl wire_224198087
s off
f 1/1/1 2/1/2 3/1/3 4/1/4 
f 5/1/5 6/1/6 7/1/7 8/1/8 
f 9/1/9 10/1/10 3/1/3 2/1/2 
f 11/1/11 12/1/12 13/1/13 14/1/14 
f 9/1/9 15/1/15 16/1/16 10/1/10 
f 3/1/3 17/1/17 6/1/6 4/1/4 
f 1/1/1 4/1/4 18/1/18 19/1/19 
f 20/1/20 21/1/21 22/1/22 23/1/23 
f 16/1/16 15/1/15 24/1/24 25/1/25 
f 10/1/10 11/1/11 17/1/17 3/1/3 
f 4/1/4 6/1/6 5/1/5 18/1/18 
f 18/1/18 5/1/5 22/1/22 26/1/26 
f 22/1/22 5/1/5 8/1/8 23/1/23 
f 27/1/27 28/1/28 29/1/29 21/1/21 
f 21/1/21 29/1/29 26/1/26 22/1/22 
f 30/1/30 27/1/27 21/1/21 20/1/20 
f 10/1/10 16/1/16 12/1/12 11/1/11 
f 16/1/16 25/1/25 31/1/31 12/1/12 
f 32/1/32 33/1/33 29/1/29 28/1/28 
f 33/1/33 34/1/34 26/1/26 29/1/29 
f 35/1/35 17/1/17 11/1/11 14/1/14 
f 12/1/12 31/1/31 36/1/36 13/1/13 
f 19/1/19 18/1/18 26/1/26 34/1/34 
f 7/1/7 6/1/6 17/1/17 35/1/35 
f 37/1/37 38/1/38 39/1/38 40/1/37 
f 37/1/39 41/1/39 42/1/39 38/1/39 
f 43/1/39 38/1/39 42/1/39 44/1/39 
f 45/1/39 43/1/39 44/1/39 46/1/39 
f 46/1/39 44/1/39 47/1/39 
f 38/1/38 43/1/40 48/1/40 39/1/38 
f 49/1/4 50/1/41 44/1/41 42/1/4 
f 48/1/40 43/1/40 45/1/42 51/1/42 
f 51/1/42 45/1/42 46/1/42 
f 44/1/41 50/1/41 52/1/43 47/1/43 
f 53/1/1 49/1/4 42/1/4 41/1/1 
f 54/1/39 40/1/39 39/1/39 55/1/39 
f 56/1/39 55/1/39 39/1/39 51/1/39 
f 51/1/39 39/1/39 48/1/39 
# 35 polygons - 3 triangles

#
# object Flag_Quarter_003
#

v  -89.8114 545.1783 0.0053
v  -89.4316 543.6589 0.0053
v  -89.4316 543.6589 1.7942
v  -89.8114 545.1783 1.9516
v  -89.2648 3.5000 0.0000
v  -89.2648 3.5000 1.7221
v  -86.7703 540.0000 0.6888
v  -86.7703 540.0000 0.0000
v  -92.7648 3.5000 -0.0000
v  -92.7648 3.5000 3.1718
v  -86.8294 3.5000 4.1575
v  -88.2791 3.5000 7.6575
v  -85.2435 3.5000 4.1575
v  -85.1073 3.5000 4.1575
v  -85.1073 3.5000 7.6575
v  -86.9016 546.6977 4.3243
v  -87.0589 545.1783 4.7041
v  -85.1126 545.1783 4.7041
v  -85.1126 546.6977 4.3243
v  -88.7705 542.1395 0.0053
v  -88.7705 542.1395 1.5204
v  -86.6277 542.1395 3.6632
v  -85.9984 540.9999 2.1438
v  -85.1126 540.9999 2.1438
v  -85.1126 542.1395 3.6632
v  -87.2511 540.9999 0.0053
v  -87.2511 540.9999 0.8911
v  -86.9016 543.6589 4.3243
v  -89.4316 546.6977 1.7942
v  -89.4316 546.6977 0.0053
v  -85.1126 549.3567 2.1438
v  -85.9984 549.3567 2.1438
v  -86.6277 548.2172 3.6632
v  -85.1126 548.2172 3.6632
v  -86.1115 540.6201 0.0053
v  -86.1115 540.6201 0.4190
v  -85.7961 540.0000 1.6630
v  -88.7705 548.2172 1.5204
v  -85.5263 549.7366 1.0042
v  -86.1115 549.7366 0.4190
v  -87.2511 549.3567 0.8911
v  -92.7648 0.0000 3.1718
v  -88.2791 0.0000 7.6575
v  -85.1126 549.7366 1.0042
v  -85.5263 540.6201 1.0042
v  -85.1073 540.0000 1.6630
v  -85.1073 0.0000 7.6575
v  -86.1115 549.7366 0.0053
v  -87.2511 549.3567 0.0053
v  -88.7705 548.2172 0.0053
v  -85.1126 543.6589 4.3243
v  -85.1126 540.6201 1.0042
v  -92.7648 0.0000 -0.0000
v  -85.7308 540.0000 0.0000
v  -85.5482 540.0000 0.4409
v  -85.1073 540.0000 0.6235
# 56 vertices

vn -1.0000 -0.0000 -0.0000
vn -0.9468 -0.3218 -0.0000
vn -0.8694 -0.3382 0.3601
vn -0.9239 -0.0000 0.3827
vn -1.0000 0.0046 -0.0000
vn -0.9239 0.0050 0.3827
vn -0.0000 1.0000 0.0000
vn -0.3601 0.3382 0.8694
vn -0.3827 -0.0000 0.9239
vn -0.0000 -0.0000 1.0000
vn -0.0000 0.3218 0.9468
vn -0.7845 -0.6201 -0.0000
vn -0.7276 -0.6163 0.3014
vn -0.3014 -0.6163 0.7276
vn -0.1787 -0.8843 0.4313
vn -0.0000 -0.8858 0.4641
vn -0.0000 -0.6201 0.7845
vn -0.4641 -0.8858 -0.0000
vn -0.4313 -0.8843 0.1787
vn -0.3601 -0.3382 0.8694
vn -0.8694 0.3382 0.3601
vn -0.9468 0.3218 -0.0000
vn -0.0000 0.8858 0.4641
vn -0.1787 0.8843 0.4313
vn -0.3014 0.6163 0.7276
vn -0.0000 0.6201 0.7845
vn -0.3162 -0.9487 -0.0000
vn -0.2719 -0.9557 0.1126
vn -0.3827 0.0050 0.9239
vn -0.7276 0.6163 0.3014
vn -0.1126 0.9557 0.2719
vn -0.2719 0.9557 0.1126
vn -0.4313 0.8843 0.1787
vn -0.0000 0.9487 0.3162
vn -0.1126 -0.9557 0.2719
vn -0.0000 0.0046 1.0000
vn -0.3162 0.9487 -0.0000
vn -0.4641 0.8858 -0.0000
vn -0.7845 0.6201 -0.0000
vn -0.0000 -0.3218 0.9468
vn -0.0000 -0.9487 0.3162
# 41 vertex normals

vt 0.0000 0.0000 0.0000
# 1 texture coords

g Flag_Quarter_003
usemtl wire_028089177
s off
f 57/2/44 58/2/45 59/2/46 60/2/47 
f 61/2/48 62/2/49 63/2/49 64/2/48 
f 61/2/50 65/2/50 66/2/50 62/2/50 
f 67/2/50 62/2/50 66/2/50 68/2/50 
f 69/2/50 67/2/50 68/2/50 70/2/50 
f 70/2/50 68/2/50 71/2/50 
f 72/2/51 73/2/52 74/2/53 75/2/54 
f 76/2/55 77/2/56 59/2/46 58/2/45 
f 78/2/57 79/2/58 80/2/59 81/2/60 
f 76/2/55 82/2/61 83/2/62 77/2/56 
f 59/2/46 84/2/63 73/2/52 60/2/47 
f 57/2/44 60/2/47 85/2/64 86/2/65 
f 87/2/66 88/2/67 89/2/68 90/2/69 
f 83/2/62 82/2/61 91/2/70 92/2/71 
f 77/2/56 78/2/57 84/2/63 59/2/46 
f 60/2/47 73/2/52 72/2/51 85/2/64 
f 62/2/49 67/2/72 93/2/72 63/2/49 
f 85/2/64 72/2/51 89/2/68 94/2/73 
f 89/2/68 72/2/51 75/2/54 90/2/69 
f 95/2/74 96/2/75 97/2/76 88/2/67 
f 88/2/67 97/2/76 94/2/73 89/2/68 
f 98/2/47 99/2/52 68/2/52 66/2/47 
f 100/2/77 95/2/74 88/2/67 87/2/66 
f 77/2/56 83/2/62 79/2/58 78/2/57 
f 83/2/62 92/2/71 101/2/78 79/2/58 
f 93/2/72 67/2/72 69/2/79 102/2/79 
f 102/2/79 69/2/79 70/2/79 
f 68/2/52 99/2/52 103/2/53 71/2/53 
f 104/2/80 105/2/81 97/2/76 96/2/75 
f 105/2/81 106/2/82 94/2/73 97/2/76 
f 107/2/83 84/2/63 78/2/57 81/2/60 
f 79/2/58 101/2/78 108/2/84 80/2/59 
f 86/2/65 85/2/64 94/2/73 106/2/82 
f 109/2/44 98/2/47 66/2/47 65/2/44 
f 74/2/53 73/2/52 84/2/63 107/2/83 
f 110/2/50 64/2/50 63/2/50 111/2/50 
f 112/2/50 111/2/50 63/2/50 102/2/50 
f 102/2/50 63/2/50 93/2/50 
# 35 polygons - 3 triangles

#
# object Flag_Quarter_002
#

v  -85.1126 545.1783 -4.7041
v  -85.1126 543.6589 -4.3243
v  -86.9016 543.6589 -4.3243
v  -87.0589 545.1783 -4.7041
v  -89.4316 546.6977 -1.7942
v  -89.8114 545.1783 -1.9516
v  -89.8114 545.1783 -0.0053
v  -89.4316 546.6977 -0.0053
v  -85.1126 542.1395 -3.6632
v  -86.6277 542.1395 -3.6632
v  -88.7705 542.1395 -1.5204
v  -87.2511 540.9999 -0.8911
v  -87.2511 540.9999 -0.0053
v  -88.7705 542.1395 -0.0053
v  -85.1126 540.9999 -2.1438
v  -85.9984 540.9999 -2.1438
v  -89.4316 543.6589 -1.7942
v  -86.9016 546.6977 -4.3243
v  -85.1126 546.6977 -4.3243
v  -87.2511 549.3567 -0.0053
v  -87.2511 549.3567 -0.8911
v  -88.7705 548.2172 -1.5204
v  -88.7705 548.2172 -0.0053
v  -85.1126 540.6201 -1.0042
v  -85.5263 540.6201 -1.0042
v  -86.6277 548.2172 -3.6632
v  -86.1115 549.7366 -0.4190
v  -85.5263 549.7366 -1.0042
v  -85.9984 549.3567 -2.1438
v  -86.1115 549.7366 -0.0053
v  -86.1115 540.6201 -0.4190
v  -85.1126 549.7366 -1.0042
v  -85.1126 549.3567 -2.1438
v  -85.1126 548.2172 -3.6632
v  -89.4316 543.6589 -0.0053
v  -86.1115 540.6201 -0.0053
v  -85.1073 3.5000 -4.1575
v  -86.8294 3.5000 -4.1575
v  -85.7961 540.0000 -1.6630
v  -85.1073 540.0000 -1.6630
v  -85.1073 3.5000 -7.6575
v  -88.2791 3.5000 -7.6575
v  -89.2648 3.5000 -1.7221
v  -92.7648 3.5000 -3.1718
v  -89.2648 3.5000 -0.1362
v  -89.2648 3.5000 -0.0000
v  -92.7648 3.5000 -0.0000
v  -86.7703 540.0000 -0.6888
v  -88.2791 0.0000 -7.6575
v  -92.7648 0.0000 -3.1718
v  -86.7703 540.0000 0.0000
v  -92.7648 0.0000 -0.0000
v  -85.1073 0.0000 -7.6575
v  -85.1073 540.0000 -0.6235
v  -85.5482 540.0000 -0.4408
v  -85.7308 540.0000 0.0000
# 56 vertices

vn 0.0000 -0.0000 -1.0000
vn 0.0000 -0.3218 -0.9468
vn -0.3601 -0.3382 -0.8694
vn -0.3827 -0.0000 -0.9239
vn -0.8694 0.3382 -0.3601
vn -0.9239 -0.0000 -0.3827
vn -1.0000 -0.0000 -0.0000
vn -0.9468 0.3218 -0.0000
vn 0.0000 -0.6201 -0.7845
vn -0.3014 -0.6163 -0.7276
vn -0.7276 -0.6163 -0.3014
vn -0.4313 -0.8843 -0.1787
vn -0.4641 -0.8858 -0.0000
vn -0.7845 -0.6201 -0.0000
vn 0.0000 -0.8858 -0.4641
vn -0.1786 -0.8843 -0.4313
vn -0.8694 -0.3382 -0.3601
vn -0.3601 0.3382 -0.8694
vn 0.0000 0.3218 -0.9468
vn -0.4641 0.8858 -0.0000
vn -0.4313 0.8843 -0.1787
vn -0.7276 0.6163 -0.3014
vn -0.7845 0.6201 -0.0000
vn 0.0000 -0.9487 -0.3162
vn -0.1126 -0.9557 -0.2719
vn -0.3014 0.6163 -0.7276
vn -0.2719 0.9557 -0.1126
vn -0.1126 0.9557 -0.2719
vn -0.1786 0.8843 -0.4313
vn -0.3162 0.9487 -0.0000
vn -0.2719 -0.9557 -0.1126
vn 0.0000 0.9487 -0.3162
vn 0.0000 0.8858 -0.4641
vn 0.0000 0.6201 -0.7845
vn -0.9468 -0.3218 -0.0000
vn -0.3162 -0.9487 -0.0000
vn 0.0000 0.0046 -1.0000
vn -0.3827 0.0050 -0.9239
vn -0.0000 1.0000 -0.0000
vn -0.9239 0.0050 -0.3827
vn -0.3827 0.0000 -0.9239
vn -0.9239 0.0000 -0.3827
vn -1.0000 0.0046 -0.0000
vn -1.0000 0.0000 -0.0000
vn 0.0000 0.0000 -1.0000
# 45 vertex normals

vt 0.0000 0.0000 0.0000
# 1 texture coords

g Flag_Quarter_002
usemtl wire_229166215
s off
f 113/3/85 114/3/86 115/3/87 116/3/88 
f 117/3/89 118/3/90 119/3/91 120/3/92 
f 121/3/93 122/3/94 115/3/87 114/3/86 
f 123/3/95 124/3/96 125/3/97 126/3/98 
f 121/3/93 127/3/99 128/3/100 122/3/94 
f 115/3/87 129/3/101 118/3/90 116/3/88 
f 113/3/85 116/3/88 130/3/102 131/3/103 
f 132/3/104 133/3/105 134/3/106 135/3/107 
f 128/3/100 127/3/99 136/3/108 137/3/109 
f 122/3/94 123/3/95 129/3/101 115/3/87 
f 116/3/88 118/3/90 117/3/89 130/3/102 
f 130/3/102 117/3/89 134/3/106 138/3/110 
f 134/3/106 117/3/89 120/3/92 135/3/107 
f 139/3/111 140/3/112 141/3/113 133/3/105 
f 133/3/105 141/3/113 138/3/110 134/3/106 
f 142/3/114 139/3/111 133/3/105 132/3/104 
f 122/3/94 128/3/100 124/3/96 123/3/95 
f 128/3/100 137/3/109 143/3/115 124/3/96 
f 144/3/116 145/3/117 141/3/113 140/3/112 
f 145/3/117 146/3/118 138/3/110 141/3/113 
f 147/3/119 129/3/101 123/3/95 126/3/98 
f 124/3/96 143/3/115 148/3/120 125/3/97 
f 131/3/103 130/3/102 138/3/110 146/3/118 
f 119/3/91 118/3/90 129/3/101 147/3/119 
f 149/3/121 150/3/122 151/3/122 152/3/121 
f 149/3/123 153/3/123 154/3/123 150/3/123 
f 155/3/123 150/3/123 154/3/123 156/3/123 
f 157/3/123 155/3/123 156/3/123 158/3/123 
f 158/3/123 156/3/123 159/3/123 
f 150/3/122 155/3/124 160/3/124 151/3/122 
f 161/3/125 162/3/126 156/3/126 154/3/125 
f 160/3/124 155/3/124 157/3/127 163/3/127 
f 163/3/127 157/3/127 158/3/127 
f 156/3/126 162/3/126 164/3/128 159/3/128 
f 165/3/129 161/3/125 154/3/125 153/3/129 
f 166/3/123 152/3/123 151/3/123 167/3/123 
f 168/3/123 167/3/123 151/3/123 163/3/123 
f 163/3/123 151/3/123 160/3/123 
# 35 polygons - 3 triangles

#
# object Flag_Quarter_001
#

v  -85.1021 545.1783 4.7041
v  -85.1021 543.6589 4.3243
v  -83.3131 543.6589 4.3243
v  -83.1557 545.1783 4.7041
v  -80.7830 546.6977 1.7942
v  -80.4032 545.1783 1.9516
v  -80.4032 545.1783 0.0053
v  -80.7830 546.6977 0.0053
v  -85.1021 542.1395 3.6632
v  -83.5869 542.1395 3.6632
v  -81.4441 542.1395 1.5204
v  -82.9635 540.9999 0.8911
v  -82.9635 540.9999 0.0053
v  -81.4441 542.1395 0.0053
v  -85.1021 540.9999 2.1438
v  -84.2162 540.9999 2.1438
v  -80.7830 543.6589 1.7942
v  -83.3131 546.6977 4.3243
v  -85.1021 546.6977 4.3243
v  -82.9635 549.3567 0.0053
v  -82.9635 549.3567 0.8911
v  -81.4441 548.2172 1.5204
v  -81.4441 548.2172 0.0053
v  -85.1021 540.6201 1.0042
v  -84.6883 540.6201 1.0042
v  -83.5869 548.2172 3.6632
v  -84.1031 549.7366 0.4190
v  -84.6883 549.7366 1.0042
v  -84.2162 549.3567 2.1438
v  -84.1031 549.7366 0.0053
v  -84.1031 540.6201 0.4190
v  -85.1021 549.7366 1.0042
v  -85.1021 549.3567 2.1438
v  -85.1021 548.2172 3.6632
v  -80.7830 543.6589 0.0053
v  -84.1031 540.6201 0.0053
v  -85.1073 3.5000 4.1575
v  -83.3852 3.5000 4.1575
v  -84.4185 540.0000 1.6630
v  -85.1073 540.0000 1.6630
v  -85.1073 3.5000 7.6575
v  -81.9355 3.5000 7.6575
v  -80.9499 3.5000 1.7221
v  -77.4499 3.5000 3.1718
v  -80.9499 3.5000 0.1362
v  -80.9499 3.5000 -0.0000
v  -77.4499 3.5000 -0.0000
v  -83.4443 540.0000 0.6888
v  -81.9355 0.0000 7.6575
v  -77.4499 0.0000 3.1718
v  -83.4443 540.0000 -0.0000
v  -77.4499 0.0000 -0.0000
v  -85.1073 0.0000 7.6575
v  -85.1073 540.0000 0.6235
v  -84.6665 540.0000 0.4408
v  -84.4838 540.0000 -0.0000
# 56 vertices

vn -0.0000 -0.0000 1.0000
vn -0.0000 -0.3218 0.9468
vn 0.3601 -0.3382 0.8694
vn 0.3827 -0.0000 0.9239
vn 0.8694 0.3382 0.3601
vn 0.9239 -0.0000 0.3827
vn 1.0000 -0.0000 0.0000
vn 0.9468 0.3218 0.0000
vn -0.0000 -0.6201 0.7845
vn 0.3014 -0.6163 0.7276
vn 0.7276 -0.6163 0.3014
vn 0.4313 -0.8843 0.1787
vn 0.4641 -0.8858 0.0000
vn 0.7845 -0.6201 0.0000
vn -0.0000 -0.8858 0.4641
vn 0.1787 -0.8843 0.4313
vn 0.8694 -0.3382 0.3601
vn 0.3601 0.3382 0.8694
vn -0.0000 0.3218 0.9468
vn 0.4641 0.8858 0.0000
vn 0.4313 0.8843 0.1787
vn 0.7276 0.6163 0.3014
vn 0.7845 0.6201 0.0000
vn -0.0000 -0.9487 0.3162
vn 0.1126 -0.9557 0.2719
vn 0.3014 0.6163 0.7276
vn 0.2719 0.9557 0.1126
vn 0.1126 0.9557 0.2719
vn 0.1787 0.8843 0.4313
vn 0.3162 0.9487 0.0000
vn 0.2719 -0.9557 0.1126
vn -0.0000 0.9487 0.3162
vn -0.0000 0.8858 0.4641
vn -0.0000 0.6201 0.7845
vn 0.9468 -0.3218 0.0000
vn 0.3162 -0.9487 0.0000
vn -0.0000 0.0046 1.0000
vn 0.3827 0.0050 0.9239
vn 0.0000 1.0000 0.0000
vn 0.9239 0.0050 0.3827
vn 0.3827 0.0000 0.9239
vn 0.9239 0.0000 0.3827
vn 1.0000 0.0046 0.0000
vn 1.0000 0.0000 0.0000
vn -0.0000 0.0000 1.0000
# 45 vertex normals

vt 0.0000 0.0000 0.0000
# 1 texture coords

g Flag_Quarter_001
usemtl wire_134006006
s off
f 169/4/130 170/4/131 171/4/132 172/4/133 
f 173/4/134 174/4/135 175/4/136 176/4/137 
f 177/4/138 178/4/139 171/4/132 170/4/131 
f 179/4/140 180/4/141 181/4/142 182/4/143 
f 177/4/138 183/4/144 184/4/145 178/4/139 
f 171/4/132 185/4/146 174/4/135 172/4/133 
f 169/4/130 172/4/133 186/4/147 187/4/148 
f 188/4/149 189/4/150 190/4/151 191/4/152 
f 184/4/145 183/4/144 192/4/153 193/4/154 
f 178/4/139 179/4/140 185/4/146 171/4/132 
f 172/4/133 174/4/135 173/4/134 186/4/147 
f 186/4/147 173/4/134 190/4/151 194/4/155 
f 190/4/151 173/4/134 176/4/137 191/4/152 
f 195/4/156 196/4/157 197/4/158 189/4/150 
f 189/4/150 197/4/158 194/4/155 190/4/151 
f 198/4/159 195/4/156 189/4/150 188/4/149 
f 178/4/139 184/4/145 180/4/141 179/4/140 
f 184/4/145 193/4/154 199/4/160 180/4/141 
f 200/4/161 201/4/162 197/4/158 196/4/157 
f 201/4/162 202/4/163 194/4/155 197/4/158 
f 203/4/164 185/4/146 179/4/140 182/4/143 
f 180/4/141 199/4/160 204/4/165 181/4/142 
f 187/4/148 186/4/147 194/4/155 202/4/163 
f 175/4/136 174/4/135 185/4/146 203/4/164 
f 205/4/166 206/4/167 207/4/167 208/4/166 
f 205/4/168 209/4/168 210/4/168 206/4/168 
f 211/4/168 206/4/168 210/4/168 212/4/168 
f 213/4/168 211/4/168 212/4/168 214/4/168 
f 214/4/168 212/4/168 215/4/168 
f 206/4/167 211/4/169 216/4/169 207/4/167 
f 217/4/170 218/4/171 212/4/171 210/4/170 
f 216/4/169 211/4/169 213/4/172 219/4/172 
f 219/4/172 213/4/172 214/4/172 
f 212/4/171 218/4/171 220/4/173 215/4/173 
f 221/4/174 217/4/170 210/4/170 209/4/174 
f 222/4/168 208/4/168 207/4/168 223/4/168 
f 224/4/168 223/4/168 207/4/168 219/4/168 
f 219/4/168 207/4/168 216/4/168 
# 35 polygons - 3 triangles

#
# object Layer0_001
#

v  -67.6460 468.0459 7.1170
v  -67.6460 467.1147 7.1170
v  -52.4826 467.1147 5.2385
v  23.1935 486.2514 -2.4419
v  34.2258 485.5739 -2.3217
v  34.2258 508.8977 -2.3217
v  23.7579 534.3319 -2.4358
v  34.2258 532.7892 -2.3217
v  34.2258 461.7900 -2.3217
v  34.2258 440.2232 -2.3217
v  53.8284 450.9114 -3.3067
v  53.8284 460.5862 -3.3067
v  -69.8062 444.2232 5.6936
v  -44.8966 444.2232 2.6077
v  -20.1731 465.1306 1.0893
v  -44.8966 420.3317 2.6077
v  -17.8268 420.3317 0.9452
v  -17.8268 464.9865 0.9452
v  -77.8630 421.3317 4.2702
v  -79.6261 535.7892 -0.0000
v  -47.0567 512.8978 1.1843
v  -47.0567 533.7485 1.1843
v  53.9453 484.3630 -1.8757
v  59.7285 484.0078 -1.9624
v  79.1953 517.6783 2.4730
v  54.0818 496.6944 -0.2047
v  69.7513 483.3923 -2.0831
v  89.4376 495.2482 -0.5702
v  53.9551 428.0199 -1.7557
v  53.9551 407.1284 -1.7557
v  80.1957 400.2726 -2.3611
v  34.2258 417.3317 -2.3217
v  86.9948 428.0199 -1.9367
v  -17.8268 489.0594 0.9452
v  2.1440 487.8330 -1.9111
v  2.7145 536.4385 -1.9927
v  -17.8268 490.0062 0.9452
v  -17.8268 534.7892 0.9452
v  91.3424 450.9114 -3.4811
v  91.4840 482.0577 -2.3647
v  -71.9663 512.8978 4.2702
v  47.7163 484.7455 -2.9996
v  91.7986 458.2545 -3.4832
v  -33.2451 490.0062 2.8553
v  -68.0494 492.1436 6.8512
v  1.3697 421.8730 -1.8003
v  1.8616 463.7775 -1.8707
v  22.4101 419.5083 -2.4505
v  22.9146 462.4846 -2.4450
v  7.0828 422.3317 -2.6174
v  7.0828 536.7892 -2.6174
v  -17.8268 467.1147 0.9452
v  -67.6460 490.0062 7.1170
v  92.7648 473.8029 -3.4877
v  53.8284 473.8029 -3.3067
# 55 vertices

vn 0.1229 0.0000 0.9924
vn 0.1229 -0.0376 0.9917
vn 0.1226 -0.0717 0.9899
vn -0.0109 -0.0000 0.9999
vn 0.0208 -0.0000 0.9998
vn -0.0525 -0.0108 0.9986
vn -0.0510 -0.0000 0.9987
vn 0.0185 -0.0000 0.9998
vn 0.0007 0.0114 0.9999
vn 0.0213 0.0283 0.9994
vn 0.0283 -0.0000 0.9996
vn 0.1224 -0.0907 0.9883
vn 0.0895 -0.0386 0.9952
vn 0.0763 -0.0178 0.9969
vn 0.0559 -0.0000 0.9984
vn 0.1000 -0.0000 0.9950
vn 0.0864 -0.0522 0.9949
vn 0.0486 0.1205 0.9915
vn 0.0574 0.0795 0.9952
vn -0.0143 -0.0000 0.9999
vn -0.0867 -0.1328 0.9873
vn 0.0056 -0.1338 0.9910
vn -0.0442 -0.0749 0.9962
vn -0.0914 -0.0927 0.9915
vn 0.0041 -0.1333 0.9911
vn -0.0027 0.0257 0.9997
vn 0.0037 -0.0000 1.0000
vn 0.0118 -0.0107 0.9999
vn -0.0215 -0.0000 0.9998
vn 0.0052 0.0309 0.9995
vn 0.1326 0.0000 0.9912
vn 0.1416 -0.0000 0.9899
vn 0.1158 0.0155 0.9931
vn 0.0775 -0.0000 0.9970
vn 0.1207 0.1884 0.9747
vn -0.1098 -0.0891 0.9899
vn 0.1217 0.1423 0.9823
vn 0.1216 0.1451 0.9819
vn 0.0632 -0.0000 0.9980
vn 0.0673 -0.0000 0.9977
vn 0.1031 0.0000 0.9947
vn 0.1238 -0.0082 0.9923
vn 0.1319 0.0000 0.9913
vn 0.1226 0.0764 0.9895
vn 0.1229 0.0028 0.9924
vn 0.0265 -0.0000 0.9996
vn 0.0046 -0.0000 1.0000
vn 0.0046 -0.0651 0.9979
vn 0.0079 -0.0443 0.9990
vn -0.0253 -0.0421 0.9988
vn -0.0914 -0.1327 0.9869
vn 0.0046 -0.1341 0.9910
vn 0.1229 -0.0014 0.9924
vn 0.1078 -0.0554 0.9926
# 54 vertex normals

vt 0.0000 0.0000 0.0000
# 1 texture coords

g Layer0_001
usemtl wire_006134006
s off
f 225/5/175 226/5/176 227/5/177 
f 228/5/178 229/5/179 230/5/180 231/5/178 
f 231/5/178 230/5/180 232/5/181 
f 233/5/182 234/5/183 235/5/184 236/5/185 
f 226/5/176 237/5/186 238/5/187 239/5/188 
f 226/5/176 239/5/188 227/5/177 
f 240/5/189 241/5/190 242/5/190 238/5/187 
f 238/5/187 242/5/190 239/5/188 
f 238/5/187 237/5/186 243/5/191 
f 244/5/192 245/5/193 246/5/194 
f 238/5/187 243/5/191 240/5/189 
f 247/5/195 248/5/196 249/5/197 250/5/198 
f 248/5/196 251/5/199 252/5/199 249/5/197 
f 253/5/200 254/5/201 255/5/202 
f 230/5/180 250/5/198 249/5/197 232/5/181 
f 256/5/203 254/5/201 253/5/200 234/5/183 
f 253/5/200 255/5/202 257/5/204 
f 258/5/205 259/5/206 260/5/206 261/5/207 
f 261/5/207 260/5/206 262/5/208 
f 263/5/204 235/5/184 257/5/204 
f 252/5/199 251/5/199 264/5/196 
f 235/5/184 234/5/183 253/5/200 
f 244/5/192 265/5/209 245/5/193 
f 235/5/184 253/5/200 257/5/204 
f 245/5/193 261/5/207 262/5/208 246/5/194 
f 266/5/210 247/5/195 250/5/198 230/5/180 
f 236/5/185 235/5/184 263/5/204 267/5/201 
f 268/5/211 261/5/207 245/5/193 269/5/212 
f 269/5/212 245/5/193 265/5/209 
f 242/5/190 241/5/190 270/5/206 271/5/206 
f 230/5/180 229/5/179 266/5/210 
f 272/5/178 256/5/203 234/5/183 273/5/178 
f 273/5/178 234/5/183 233/5/182 
f 268/5/211 258/5/205 261/5/207 
f 271/5/206 270/5/206 274/5/213 275/5/214 
f 259/5/206 271/5/206 275/5/214 260/5/206 
f 242/5/215 271/5/206 259/5/206 276/5/216 
f 258/5/217 276/5/216 259/5/206 
f 269/5/212 277/5/218 268/5/219 
f 236/5/220 267/5/221 278/5/222 279/5/223 
f 266/5/224 279/5/223 247/5/225 
f 279/5/223 278/5/222 264/5/226 251/5/226 
f 227/5/227 239/5/228 276/5/216 
f 248/5/226 279/5/223 251/5/226 
f 276/5/216 239/5/228 242/5/215 
f 247/5/225 279/5/223 248/5/226 
f 233/5/179 236/5/220 279/5/223 229/5/182 
f 229/5/182 279/5/223 266/5/224 
f 273/5/178 233/5/179 229/5/182 228/5/178 
f 273/5/178 228/5/178 275/5/214 274/5/213 
f 273/5/178 274/5/213 272/5/178 
f 275/5/214 228/5/178 231/5/178 
f 227/5/227 276/5/216 258/5/217 225/5/175 
f 277/5/218 225/5/175 258/5/217 268/5/219 
# 25 polygons - 29 triangles

